<?xml version="1.0" encoding="UTF-8" standalone="no"?>
<!-- Created with Inkscape (http://www.inkscape.org/) -->

<svg
   width="94.999992mm"
   height="95mm"
   viewBox="0 0 94.999992 95"
   version="1.1"
   id="svg1"
   xml:space="preserve"
   sodipodi:docname="logoa2r_rounded.svg"
   inkscape:version="1.4 (86a8ad7, 2024-10-11)"
   xmlns:inkscape="http://www.inkscape.org/namespaces/inkscape"
   xmlns:sodipodi="http://sodipodi.sourceforge.net/DTD/sodipodi-0.dtd"
   xmlns="http://www.w3.org/2000/svg"
   xmlns:svg="http://www.w3.org/2000/svg"><sodipodi:namedview
     id="namedview1"
     pagecolor="#ffffff"
     bordercolor="#000000"
     borderopacity="0.25"
     inkscape:showpageshadow="2"
     inkscape:pageopacity="0.0"
     inkscape:pagecheckerboard="0"
     inkscape:deskcolor="#d1d1d1"
     inkscape:document-units="mm"
     inkscape:zoom="2.2475658"
     inkscape:cx="179.52756"
     inkscape:cy="179.52756"
     inkscape:window-width="1920"
     inkscape:window-height="1009"
     inkscape:window-x="-8"
     inkscape:window-y="-8"
     inkscape:window-maximized="1"
     inkscape:current-layer="svg1" /><defs
     id="defs1" /><g
     id="layer1"
     transform="translate(-52.640426,-93.847587)"><path
       style="fill:#a05a2c;stroke-width:0.15;stroke-linecap:round"
       id="rect2"
       width="95"
       height="95"
       x="55.20446"
       y="91.639404"
       d="m 71.029739,91.639404 h 63.349441 c 8.76721,0 15.82528,7.058075 15.82528,15.825276 v 63.34945 c 0,8.7672 -7.05807,15.82527 -15.82528,15.82527 H 71.029739 c -8.767204,0 -15.825279,-7.05807 -15.825279,-15.82527 v -63.34945 c 0,-8.767201 7.058075,-15.825276 15.825279,-15.825276 z"
       rx="15.825279"
       ry="15.825279"
       transform="translate(-2.5640325,2.2081763)" /><path
       style="fill:#ffffff;stroke-width:0.839135"
       d="m 110.92425,171.36058 c -0.30528,-0.15254 -0.73513,-0.62564 -0.95521,-1.05133 -0.26497,-0.51247 -0.36465,-1.06436 -0.29506,-1.63342 0.0698,-0.57063 0.34267,-1.10452 0.81199,-1.58876 l 0.7069,-0.72932 -0.0788,-23.49962 -0.0788,-23.49963 0.62283,-1.05957 c 0.34256,-0.58277 1.03501,-1.33209 1.53877,-1.66516 0.83706,-0.55344 1.09891,-0.60559 3.04052,-0.60559 1.99703,0 2.22455,0.049 3.78975,0.81563 0.91583,0.4486 1.93319,1.098 2.2608,1.44314 0.32761,0.34512 0.95205,1.22108 1.38763,1.94658 0.62946,1.04838 0.79206,1.54954 0.79238,2.44223 3.9e-4,1.12316 3.9e-4,1.12316 -2.18872,3.26466 -2.03841,1.99406 -2.19716,2.21282 -2.3059,3.17762 -0.072,0.6399 -0.30483,1.23628 -0.60848,1.55951 -0.27042,0.28785 -0.77988,0.64275 -1.13212,0.78865 -0.38203,0.15824 -0.97078,0.20331 -1.45919,0.11168 -0.48207,-0.0904 -1.07413,-0.42697 -1.43976,-0.81839 -0.34156,-0.36563 -0.68223,-0.99116 -0.75706,-1.39005 -0.0824,-0.43937 -0.005,-1.03895 0.1964,-1.52098 0.18285,-0.43763 0.60596,-0.9749 0.94024,-1.19393 0.33429,-0.21903 1.06697,-0.41228 1.6282,-0.42943 0.93225,-0.0285 1.167,-0.16341 2.71704,-1.56171 0.93314,-0.84179 1.75813,-1.66551 1.83331,-1.83049 0.0752,-0.16499 -0.1388,-0.8067 -0.4755,-1.42602 -0.33672,-0.61934 -1.00322,-1.4095 -1.48112,-1.75593 -0.47789,-0.34641 -1.37025,-0.77874 -1.98298,-0.96071 -0.61275,-0.18195 -1.52055,-0.32861 -2.01737,-0.3259 -0.51856,0.003 -1.10498,0.16832 -1.37684,0.38854 -0.26046,0.21098 -0.57498,0.58342 -0.69892,0.82764 -0.14673,0.28911 -0.25167,8.54658 -0.30078,23.66684 l -0.0754,23.22281 0.71883,0.8187 c 0.50896,0.57968 0.71884,1.03911 0.71884,1.5736 0,0.4152 -0.0974,1.01114 -0.21649,1.32431 -0.11907,0.31316 -0.54369,0.76889 -0.94359,1.01272 -0.3999,0.24381 -1.07678,0.4422 -1.50418,0.44086 -0.42738,-0.002 -1.02685,-0.12724 -1.33212,-0.27978 z m 2.12977,-2.05022 c 0.0803,-0.32 0.0232,-0.69873 -0.13398,-0.88808 -0.15069,-0.18158 -0.44934,-0.33015 -0.66367,-0.33015 -0.21431,0 -0.51297,0.14857 -0.66367,0.33015 -0.15714,0.18935 -0.21428,0.56808 -0.13396,0.88808 0.11014,0.4388 0.28045,0.55794 0.79763,0.55794 0.51719,0 0.68751,-0.11914 0.79765,-0.55794 z m 4.97247,-40.06737 c 0.13878,-0.25932 0.1143,-0.51437 -0.0741,-0.77204 -0.17044,-0.23311 -0.49525,-0.3546 -0.82397,-0.3082 -0.3788,0.0534 -0.56573,0.24041 -0.61921,0.6192 -0.0459,0.3248 0.0743,0.6529 0.29911,0.81734 0.20663,0.15109 0.51862,0.21987 0.69332,0.15283 0.17469,-0.067 0.41088,-0.29615 0.52487,-0.50913 z m -2.02719,33.5911 c -0.0173,-0.22193 -0.0423,-0.65328 -0.0555,-0.95856 -0.0132,-0.30527 0.045,-0.71231 0.12934,-0.90451 0.0844,-0.19222 0.58393,-0.47688 1.11011,-0.6326 0.52618,-0.15573 1.52965,-0.62921 2.22993,-1.05219 0.7003,-0.42299 1.61313,-1.18737 2.02851,-1.69863 0.41538,-0.51125 0.96602,-1.27925 1.22365,-1.70664 0.25763,-0.42738 0.46879,-1.06181 0.46923,-1.40983 5.7e-4,-0.42874 -0.23672,-0.85825 -0.73598,-1.33212 -0.40525,-0.38465 -1.61322,-1.5486 -2.68438,-2.58655 -1.07117,-1.03795 -2.08838,-2.15697 -2.26047,-2.48671 -0.23115,-0.44289 -0.3129,-1.52724 -0.3129,-4.1503 0,-3.164 -0.0435,-3.58238 -0.39969,-3.84089 -0.21983,-0.15956 -0.56951,-0.53714 -0.77707,-0.83907 -0.20756,-0.30192 -0.37739,-0.88596 -0.37739,-1.29786 0,-0.41191 0.16341,-1.02556 0.36313,-1.36365 0.19972,-0.3381 0.63975,-0.77813 0.97784,-0.97784 0.3381,-0.19972 0.92898,-0.36313 1.31307,-0.36313 0.38408,0 0.98704,0.14929 1.3399,0.33175 0.35285,0.18247 0.79749,0.55439 0.98806,0.82649 0.19575,0.27948 0.34651,0.95283 0.34651,1.54768 0,0.85339 -0.12625,1.19678 -0.66606,1.8116 -0.66606,0.7586 -0.66606,0.7586 -0.66606,4.01699 v 3.25839 l 2.96924,2.92889 c 2.22235,2.19213 3.0018,3.10524 3.09866,3.63002 0.0712,0.38562 0.0463,0.98507 -0.0553,1.33213 -0.1016,0.34704 -0.44844,1.18391 -0.77074,1.85969 -0.32232,0.6758 -1.02074,1.72484 -1.55205,2.33123 -0.5313,0.60638 -1.52963,1.48983 -2.21849,1.96322 -0.68887,0.47339 -1.8762,1.08511 -2.63852,1.35937 -0.76232,0.27428 -1.61084,0.56807 -1.88558,0.6529 -0.38658,0.11934 -0.50667,0.063 -0.53099,-0.24927 z m 2.78854,-24.18351 c 0.19315,-0.0741 0.35118,-0.35387 0.35118,-0.62166 0,-0.26779 -0.11988,-0.60679 -0.26641,-0.75332 -0.14654,-0.14653 -0.44275,-0.26643 -0.65826,-0.26643 -0.21549,0 -0.49876,0.19982 -0.62947,0.44405 -0.16884,0.31549 -0.16884,0.5726 0,0.88809 0.13071,0.24422 0.37583,0.44403 0.54471,0.44403 0.16889,0 0.46509,-0.0607 0.65825,-0.13476 z m -13.56646,23.249 c -0.38907,-0.24438 -0.80351,-0.62452 -0.92099,-0.84474 -0.11747,-0.22024 -0.23481,-0.65019 -0.26076,-0.95547 -0.0259,-0.30528 -0.0361,-0.77637 -0.0226,-1.04687 0.0135,-0.27051 0.3243,-0.8332 0.69063,-1.25043 l 0.66607,-0.75861 v -19.22269 c 0,-18.81844 -0.01,-19.2482 -0.45391,-20.43588 -0.26548,-0.70957 -0.83015,-1.58943 -1.3602,-2.11949 -0.62214,-0.62213 -1.29777,-1.02539 -2.15485,-1.28609 -0.69733,-0.21214 -1.98365,-0.38082 -2.913689,-0.38209 -1.025978,-0.002 -2.105532,0.14965 -2.812399,0.39351 -1.147242,0.39578 -1.147242,0.39578 -2.275716,-0.19428 -0.620661,-0.32454 -1.128475,-0.7164 -1.128475,-0.87081 0,-0.1544 0.622423,-0.55068 1.383161,-0.88061 0.760738,-0.32992 2.15793,-0.71277 3.10487,-0.85079 1.242843,-0.18114 2.176867,-0.18537 3.358198,-0.0152 0.90007,0.12968 2.22541,0.50454 2.9452,0.83305 0.7198,0.32851 1.74186,1.01683 2.27127,1.52961 0.5294,0.51278 1.27872,1.53178 1.66515,2.26445 l 0.70261,1.33212 0.0601,19.9746 c 0.0602,19.9746 0.0602,19.9746 0.60495,20.54325 0.29965,0.31276 0.65597,0.88754 0.79184,1.27729 0.18152,0.52071 0.18129,0.90781 -8.4e-4,1.45969 -0.13632,0.41308 -0.48853,0.97715 -0.78266,1.25347 -0.32693,0.30713 -0.9069,0.54028 -1.49219,0.59987 -0.69989,0.0712 -1.14769,-0.0221 -1.66482,-0.34687 z m 2.23802,-1.85572 c 0.17636,-0.28165 0.17636,-0.49542 0,-0.77707 -0.13381,-0.2137 -0.50124,-0.4195 -0.81652,-0.45736 -0.39741,-0.0476 -0.64831,0.0715 -0.818,0.38854 -0.17834,0.33324 -0.17834,0.58148 0,0.91471 0.16969,0.31706 0.42059,0.43624 0.818,0.38853 0.31528,-0.0378 0.68271,-0.24366 0.81652,-0.45735 z m -18.516915,-0.81244 c -0.672538,-0.0947 -1.621679,-0.30148 -2.1092,-0.45951 -0.487522,-0.15802 -1.353904,-0.52154 -1.925298,-0.80783 -0.571391,-0.28629 -1.480472,-0.94704 -2.02018,-1.46834 -0.539706,-0.52129 -1.287116,-1.40236 -1.66091,-1.9579 -0.373795,-0.55556 -0.713582,-1.18762 -0.755083,-1.40458 -0.05521,-0.28866 0.162786,-0.47839 0.812626,-0.70723 0.488447,-0.172 1.00085,-0.31424 1.138675,-0.31608 0.137825,-0.002 0.364751,0.27227 0.504282,0.60912 0.13953,0.33685 0.552376,0.93207 0.917435,1.32267 0.36506,0.39062 0.996871,0.96429 1.404027,1.27485 0.407154,0.31056 1.285912,0.75237 1.952795,0.98181 0.666883,0.22944 1.731402,0.48853 2.365598,0.57575 0.634196,0.0872 1.653928,0.0897 2.266072,0.006 0.825332,-0.11351 1.788593,-0.56361 3.72702,-1.7415 1.437718,-0.87363 2.819297,-1.73828 3.070173,-1.92145 0.250885,-0.18317 0.571913,-0.55126 0.713407,-0.81798 0.16677,-0.31438 0.257254,-1.85398 0.257254,-4.37711 0,-3.58193 -0.03323,-3.90996 -0.417344,-4.1155 -0.229537,-0.12286 -0.572408,-0.61091 -0.761934,-1.08458 -0.274179,-0.68524 -0.296466,-1.05078 -0.10907,-1.78905 0.130661,-0.51478 0.479892,-1.12008 0.784448,-1.35964 0.30192,-0.2375 0.899611,-0.49759 1.328202,-0.57799 0.52296,-0.0981 1.02719,-0.028 1.53314,0.21332 0.41464,0.19773 0.95265,0.6855 1.19559,1.08394 0.24293,0.39845 0.44207,1.00415 0.44251,1.34602 4.7e-4,0.34187 -0.14845,0.91029 -0.33092,1.26315 -0.18247,0.35285 -0.52603,0.77762 -0.76346,0.94393 -0.39818,0.27889 -0.43706,0.63899 -0.50082,4.63748 -0.0691,4.33052 -0.0698,4.33614 -0.69396,5.27847 -0.45129,0.68133 -1.407122,1.45422 -3.441329,2.78271 -1.549066,1.01167 -3.142466,2.00642 -3.540889,2.21057 -0.4229,0.21667 -1.439384,0.40821 -2.442232,0.46016 -0.944805,0.0489 -2.268086,0.0115 -2.940625,-0.0832 z M 101.6849,142.06324 c 0.19136,-0.30562 0.13788,-0.4889 -0.25822,-0.88501 -0.39702,-0.39703 -0.57865,-0.44973 -0.885,-0.25681 -0.212,0.13351 -0.41888,0.41271 -0.45973,0.62045 -0.0409,0.20774 -0.0165,0.52843 0.0542,0.71264 0.0808,0.21066 0.34722,0.30882 0.71795,0.26455 0.32418,-0.0387 0.69802,-0.24382 0.83076,-0.45582 z m 25.80062,9.68545 -0.57359,-1.02627 1.55537,-1.44003 c 0.85545,-0.79201 2.05042,-2.19412 2.65548,-3.11577 0.8192,-1.24786 1.19454,-2.10017 1.46989,-3.33782 0.26167,-1.17613 0.3276,-2.11585 0.22552,-3.21418 -0.0793,-0.85365 -0.3786,-2.21373 -0.66503,-3.02236 -0.28644,-0.80865 -0.65249,-1.78532 -0.81348,-2.1704 -0.2738,-0.65495 -0.25067,-0.75064 0.35845,-1.48261 0.35814,-0.43037 0.76413,-0.7897 0.90223,-0.7985 0.13809,-0.009 0.60491,0.70831 1.0374,1.59361 0.43248,0.88532 0.94985,2.15916 1.1497,2.83077 0.19986,0.67162 0.41951,2.1203 0.48811,3.21931 0.0929,1.48779 0.0271,2.39517 -0.25758,3.55234 -0.21029,0.85478 -0.73227,2.20355 -1.15997,2.99728 -0.4277,0.79372 -1.14196,1.89155 -1.58723,2.4396 -0.44528,0.54805 -1.29579,1.47369 -1.89004,2.05698 -0.59424,0.58329 -1.35971,1.25937 -1.70104,1.50243 -0.62059,0.44189 -0.62059,0.44189 -1.19419,-0.58438 z m -51.825064,-1.54544 c -0.570156,-0.13129 -1.458485,-0.45671 -1.974065,-0.72318 -0.515578,-0.26646 -1.293696,-0.79731 -1.729149,-1.17964 -0.435453,-0.38233 -1.037489,-1.1145 -1.337858,-1.62703 -0.300368,-0.51255 -0.695107,-1.42301 -0.877195,-2.02325 -0.182088,-0.60025 -0.332151,-1.7124 -0.333473,-2.47145 -0.0015,-0.85832 0.144493,-1.69032 0.386133,-2.20061 0.302082,-0.63793 0.945263,-1.1823 2.890507,-2.44644 1.647998,-1.07097 2.576305,-1.82145 2.719758,-2.19876 0.119784,-0.31506 0.217789,-1.42735 0.217789,-2.47176 0,-1.78626 -0.03887,-1.94318 -0.655113,-2.64505 -0.36031,-0.41037 -0.71929,-1.08823 -0.797732,-1.50636 -0.09629,-0.51325 -0.01799,-1.02289 0.241007,-1.56867 0.210997,-0.44465 0.664925,-0.95391 1.00873,-1.1317 0.343804,-0.17778 0.989306,-0.32325 1.434447,-0.32325 0.445142,0 1.096596,0.16969 1.447677,0.37707 0.354902,0.20965 0.793851,0.76576 0.988597,1.25248 0.212593,0.53133 0.294053,1.13137 0.207244,1.5266 -0.07866,0.35816 -0.42161,0.96849 -0.762102,1.35628 -0.58787,0.66955 -0.623189,0.83464 -0.700658,3.27507 -0.07468,2.35233 -0.132631,2.64711 -0.684369,3.48085 -0.390097,0.58947 -1.213274,1.28862 -2.332973,1.98144 -0.951602,0.58882 -1.93818,1.22043 -2.192394,1.4036 -0.254214,0.18317 -0.577972,0.55127 -0.719463,0.81799 -0.141491,0.26672 -0.257257,0.83745 -0.257257,1.26828 0,0.43085 0.199177,1.3157 0.442615,1.96634 0.252862,0.67584 0.800157,1.52556 1.27662,1.98206 0.458704,0.43947 1.183691,0.98001 1.611081,1.2012 0.552723,0.28602 1.28988,0.40527 2.553243,0.41299 1.55575,0.009 1.955258,-0.0765 3.219305,-0.69304 0.793726,-0.38715 3.136719,-1.83584 5.206651,-3.21931 3.08644,-2.06286 3.845349,-2.67516 4.2184,-3.40347 0.410324,-0.80109 0.454888,-1.29228 0.454888,-5.01401 0,-4.12593 0,-4.12593 -0.721569,-4.94769 -0.537771,-0.61246 -0.721357,-1.03189 -0.720739,-1.64663 4.57e-4,-0.45367 0.202464,-1.15558 0.448903,-1.55978 0.246441,-0.40422 0.800833,-0.88232 1.231982,-1.06247 0.467275,-0.19524 1.070638,-0.27293 1.493781,-0.19231 0.39043,0.0744 0.92,0.30683 1.176823,0.5166 0.256822,0.20976 0.581528,0.59547 0.721568,0.85714 0.140041,0.26167 0.254619,0.87849 0.254619,1.37072 0,0.67138 -0.16119,1.07854 -0.645252,1.62985 -0.645252,0.7349 -0.645252,0.7349 -0.721569,5.17522 -0.07632,4.44031 -0.07632,4.44031 -0.784615,5.87795 -0.506428,1.02791 -1.012645,1.66798 -1.776167,2.24584 -0.587329,0.44451 -2.742486,1.8738 -4.789237,3.17617 -2.046751,1.30239 -4.094897,2.52947 -4.551432,2.72684 -0.456536,0.19737 -1.712353,0.4167 -2.790702,0.48741 -1.114313,0.0731 -2.408114,0.0255 -2.997285,-0.11013 z m 16.925709,-20.58871 c 0.243758,-0.17824 0.367041,-0.49904 0.319962,-0.83259 -0.05198,-0.36829 -0.241001,-0.56591 -0.588359,-0.61515 -0.281472,-0.04 -0.656133,0.0472 -0.832579,0.1937 -0.176446,0.14643 -0.320811,0.44887 -0.320811,0.67208 0,0.2232 0.174842,0.50765 0.388537,0.63212 0.213695,0.12446 0.444373,0.22934 0.512617,0.23305 0.06825,0.004 0.30253,-0.12373 0.520633,-0.28321 z m -15.197236,-0.69691 c 0.146438,-0.17644 0.233603,-0.55111 0.193702,-0.83259 -0.05201,-0.36686 -0.241186,-0.53124 -0.668174,-0.58057 -0.406572,-0.047 -0.667483,0.0654 -0.822019,0.35422 -0.166495,0.31109 -0.137744,0.54958 0.108666,0.90138 0.184285,0.26311 0.467028,0.47837 0.628319,0.47837 0.161291,0 0.41307,-0.14437 0.559506,-0.32081 z m 46.627101,17.24429 c -0.18728,-0.0885 -0.54609,-0.31076 -0.79735,-0.49392 -0.25126,-0.18316 -0.57261,-0.55126 -0.71411,-0.81799 -0.14148,-0.26672 -0.25724,-0.88767 -0.25724,-1.3799 0,-0.6778 0.16162,-1.07903 0.66605,-1.65357 0.66607,-0.7586 0.66607,-0.7586 0.67095,-3.72657 0.004,-2.39022 0.0836,-3.14085 0.40919,-3.85606 0.22238,-0.48845 1.26924,-1.73424 2.32635,-2.76842 1.31869,-1.29011 1.92203,-2.04154 1.92203,-2.39386 0,-0.28244 -0.15494,-0.88497 -0.34429,-1.33897 -0.18936,-0.45399 -0.65699,-1.14854 -1.03918,-1.54344 -0.6949,-0.71799 -0.6949,-0.71799 -0.37143,-1.75962 0.17792,-0.57289 0.45089,-1.0841 0.60661,-1.136 0.15572,-0.0519 0.8134,0.44019 1.4615,1.09356 0.81316,0.81975 1.3257,1.58618 1.6537,2.47288 0.27261,0.73697 0.47532,1.80628 0.47532,2.50742 0,1.22248 0,1.22248 -2.13518,3.37749 -1.17435,1.18526 -2.22339,2.38633 -2.33122,2.66903 -0.10782,0.2827 -0.19604,1.64164 -0.19604,3.01985 0,2.47597 0.007,2.5141 0.65963,3.19612 0.3628,0.37963 0.72348,0.94462 0.80151,1.25551 0.078,0.31087 0.0797,0.89677 0.004,1.30197 -0.0761,0.4052 -0.4118,0.99884 -0.74618,1.3192 -0.36783,0.35241 -0.95866,0.62862 -1.49587,0.69933 -0.48836,0.0643 -1.04114,0.0445 -1.22841,-0.0441 z m 1.55922,-1.93418 c 0.15101,-0.18195 0.21413,-0.56868 0.14062,-0.86156 -0.0734,-0.29226 -0.3201,-0.58022 -0.5483,-0.63991 -0.22823,-0.0597 -0.579,-0.0167 -0.77951,0.0955 -0.20052,0.11221 -0.36457,0.44387 -0.36457,0.73701 0,0.29314 0.17485,0.63483 0.38854,0.75929 0.21369,0.12446 0.50119,0.22934 0.63888,0.23305 0.13768,0.004 0.37363,-0.14182 0.52434,-0.3234 z m -58.536493,-5.93032 c -0.257733,-0.28115 -0.668679,-0.91081 -0.913213,-1.39926 -0.244534,-0.48844 -0.605491,-1.43074 -0.802129,-2.09398 -0.214921,-0.72492 -0.357523,-2.01726 -0.357523,-3.24006 0,-1.43115 0.12699,-2.40325 0.428388,-3.27927 0.235614,-0.68483 0.690577,-1.69253 1.011029,-2.23934 0.320452,-0.54681 1.278487,-1.65063 2.128965,-2.45293 1.167026,-1.10091 2.111413,-1.73129 3.850069,-2.56992 1.267058,-0.61116 2.753333,-1.17282 3.302834,-1.24813 0.790362,-0.10834 1.249411,-0.0223 2.197253,0.41159 0.658989,0.30169 2.293034,1.17582 3.631212,1.94251 1.338178,0.76669 2.74433,1.62584 3.124783,1.90921 0.380452,0.28339 0.915363,0.991 1.188689,1.57247 0.397928,0.84656 0.519886,1.5899 0.61202,3.73031 0.106287,2.4692 0.15774,2.71886 0.674578,3.27327 0.390455,0.41882 0.591324,0.93119 0.664783,1.69571 0.09722,1.01175 0.04516,1.16112 -0.680597,1.95306 -0.717355,0.78277 -0.885615,0.85753 -1.930089,0.85753 -1.037757,0 -1.214943,-0.0772 -1.904239,-0.82931 -0.618481,-0.67489 -0.760014,-1.0068 -0.760014,-1.78228 0,-0.53 0.166499,-1.1966 0.375137,-1.50191 0.206325,-0.30192 0.506053,-0.62885 0.666063,-0.7265 0.211243,-0.12891 0.290927,-0.84057 0.290927,-2.5983 0,-1.36322 -0.112484,-2.66762 -0.257482,-2.98585 -0.141614,-0.31082 -0.716094,-0.85032 -1.276621,-1.19891 -0.560526,-0.34857 -2.141573,-1.2562 -3.513436,-2.01693 -2.430447,-1.34773 -2.515697,-1.37621 -3.330316,-1.11226 -0.459811,0.14899 -1.393467,0.54973 -2.074791,0.89053 -0.681324,0.3408 -1.707971,0.97779 -2.281437,1.41553 -0.573467,0.43773 -1.339216,1.11928 -1.701665,1.51455 -0.362449,0.39527 -0.92589,1.26817 -1.252094,1.93978 -0.430054,0.88543 -0.620785,1.68406 -0.693813,2.90514 -0.07063,1.181 0.01179,2.07631 0.275924,2.99729 0.207151,0.72228 0.568718,1.64367 0.803479,2.04751 0.234762,0.40384 0.42684,0.80457 0.42684,0.89052 0,0.0859 -0.327354,0.53505 -0.727453,0.99803 -0.727452,0.84178 -0.727452,0.84178 -1.196061,0.3306 z m 18.676408,-3.14088 c 0.293639,-0.21471 0.368543,-0.45652 0.266886,-0.86155 -0.07773,-0.30969 -0.336557,-0.61413 -0.575178,-0.67653 -0.250064,-0.0653 -0.58028,0.0484 -0.779502,0.26848 -0.190106,0.21007 -0.345647,0.54395 -0.345647,0.74195 0,0.19802 0.174842,0.46187 0.388537,0.58633 0.213696,0.12447 0.444374,0.22934 0.512619,0.23306 0.06824,0.004 0.307772,-0.12758 0.532285,-0.29174 z m 12.546888,0.29518 c -0.309128,-0.0849 -0.782057,-0.29176 -1.050951,-0.45969 -0.268894,-0.16793 -0.63847,-0.67913 -0.82128,-1.13603 -0.195492,-0.48857 -0.27635,-1.11085 -0.196332,-1.51094 0.07482,-0.37413 0.422574,-0.98696 0.772774,-1.36185 0.636725,-0.68163 0.636725,-0.68163 0.636725,-4.56963 v -3.88802 l -0.843396,-0.80645 c -0.463868,-0.44356 -1.637804,-1.3014 -2.608747,-1.90632 -0.970943,-0.60493 -2.514674,-1.48097 -3.43051,-1.94676 -0.915837,-0.46581 -2.20332,-0.945 -2.861073,-1.06486 -0.657752,-0.11986 -1.710789,-0.21794 -2.34008,-0.21794 -0.629291,0 -1.723695,0.15095 -2.432008,0.33544 -0.708313,0.18449 -1.733876,0.59684 -2.27903,0.91632 -0.991187,0.58088 -0.991187,0.58088 -1.922604,0.17877 -0.512279,-0.22117 -1.02397,-0.48128 -1.137091,-0.57805 -0.120736,-0.10327 -0.03513,-0.36437 0.207296,-0.63224 0.227132,-0.25097 0.920524,-0.74672 1.540871,-1.10165 0.620346,-0.35492 1.925797,-0.8643 2.901,-1.13194 1.483596,-0.40717 2.1356,-0.46654 3.993308,-0.36359 1.221116,0.0677 2.693509,0.27032 3.271985,0.45033 0.578476,0.18003 2.212901,0.99194 3.632054,1.80426 1.419154,0.81232 3.262144,1.92617 4.095535,2.4752 1.205731,0.79434 1.631634,1.2318 2.084985,2.14157 0.548646,1.10096 0.569736,1.29234 0.569736,5.16839 0,3.97071 0.007,4.03192 0.5372,4.52978 0.29546,0.27757 0.65657,0.79287 0.80248,1.14511 0.14657,0.35385 0.203,0.97241 0.1261,1.38231 -0.0765,0.40804 -0.42021,1.01112 -0.76369,1.3402 -0.34347,0.32908 -0.916712,0.68028 -1.273857,0.78047 -0.357144,0.10019 -0.902271,0.11269 -1.2114,0.0278 z m 1.424658,-2.26932 c 0.191356,-0.30564 0.137878,-0.48891 -0.258219,-0.885 -0.397028,-0.39703 -0.57865,-0.44974 -0.885001,-0.25682 -0.212,0.13351 -0.418879,0.41271 -0.459729,0.62045 -0.04086,0.20773 -0.01645,0.52842 0.05421,0.71264 0.08081,0.21066 0.347218,0.30882 0.717947,0.26455 0.324183,-0.0387 0.698026,-0.24383 0.83076,-0.45582 z"
       id="path2" /></g></svg>
