<?xml version="1.0" encoding="UTF-8" standalone="no"?>
<!-- Created with Inkscape (http://www.inkscape.org/) -->

<svg
   width="137.95241mm"
   height="55.099651mm"
   viewBox="0 0 137.95241 55.099651"
   version="1.1"
   id="svg1"
   xml:space="preserve"
   xmlns="http://www.w3.org/2000/svg"
   xmlns:svg="http://www.w3.org/2000/svg"><defs
     id="defs1" /><path
     style="fill:#000000;stroke-width:0.763153"
     d="M 41.796912,54.845194 C 41.519275,54.706468 41.12835,54.27621 40.928189,53.889063 40.687221,53.42299 40.596559,52.92108 40.659855,52.403548 c 0.06347,-0.518959 0.311627,-1.004507 0.738472,-1.4449 l 0.642878,-0.663278 -0.07167,-21.371782 -0.07167,-21.3717743 0.566434,-0.963625 c 0.311538,-0.530002 0.941284,-1.211474 1.399435,-1.514385 0.761265,-0.50332 0.999402,-0.550749 2.765204,-0.550749 1.816196,0 2.023123,0.04457 3.446583,0.741766 0.83291,0.407982 1.758153,0.998585 2.056098,1.31247 0.297945,0.313877 0.865837,1.110517 1.261984,1.770315 0.572462,0.953453 0.720341,1.409238 0.720626,2.2210953 3.59e-4,1.021464 3.59e-4,1.021464 -1.990535,2.969045 -1.853832,1.81351 -1.998207,2.012464 -2.097107,2.889898 -0.06559,0.581958 -0.277216,1.124338 -0.553377,1.418296 -0.245941,0.261792 -0.709265,0.584552 -1.029608,0.717242 -0.347447,0.143915 -0.882874,0.184896 -1.327068,0.101568 -0.438423,-0.08225 -0.976866,-0.388308 -1.309392,-0.74428 -0.310622,-0.332521 -0.620452,-0.901413 -0.68851,-1.264193 -0.07496,-0.399587 -0.0046,-0.944867 0.178616,-1.383252 0.166297,-0.398007 0.551097,-0.886631 0.855109,-1.085821 0.304013,-0.199198 0.970358,-0.374945 1.480767,-0.390543 0.847837,-0.02595 1.061328,-0.148624 2.471018,-1.420304 0.848651,-0.765571 1.598942,-1.514705 1.667313,-1.664748 0.06837,-0.150044 -0.126234,-0.7336493 -0.432455,-1.2968943 -0.306223,-0.563252 -0.912373,-1.281867 -1.347001,-1.596927 -0.434629,-0.315052 -1.24617,-0.708229 -1.803426,-0.873718 -0.557256,-0.165482 -1.382868,-0.298866 -1.834693,-0.296393 -0.471622,0.0023 -1.00493,0.153073 -1.252183,0.353354 -0.236875,0.19188 -0.522909,0.53059 -0.635631,0.752698 -0.133442,0.262936 -0.228881,7.7727013 -0.273541,21.5238553 l -0.06859,21.120018 0.653743,0.744569 c 0.462876,0.527186 0.653744,0.94502 0.653744,1.431117 0,0.377601 -0.0886,0.919576 -0.196885,1.204393 -0.108286,0.284808 -0.494454,0.699269 -0.858149,0.921018 -0.363696,0.221741 -0.979284,0.402166 -1.367976,0.400945 -0.388691,-0.0015 -0.933868,-0.115725 -1.211503,-0.25445 z m 1.936916,-1.864573 c 0.07304,-0.291028 0.02109,-0.635462 -0.121836,-0.807667 -0.137054,-0.165139 -0.408663,-0.300255 -0.603576,-0.300255 -0.194913,0 -0.466523,0.135116 -0.603576,0.300255 -0.142921,0.172205 -0.194878,0.516639 -0.121835,0.807667 0.100159,0.399068 0.255055,0.50742 0.725411,0.50742 0.470356,0 0.625252,-0.108352 0.725412,-0.50742 z m 4.522227,-36.439343 c 0.126217,-0.235837 0.103951,-0.46779 -0.0674,-0.702131 -0.155019,-0.212004 -0.450411,-0.322486 -0.749367,-0.280291 -0.344504,0.04861 -0.514509,0.218636 -0.563136,0.563138 -0.04169,0.295378 0.06751,0.593771 0.272023,0.743318 0.187923,0.137414 0.471665,0.199961 0.630538,0.139001 0.158872,-0.06098 0.373677,-0.269332 0.477342,-0.463035 z m -1.843627,30.549484 c -0.01572,-0.201831 -0.03844,-0.594121 -0.05048,-0.871756 -0.01204,-0.277635 0.04089,-0.647818 0.117633,-0.822618 0.07674,-0.174807 0.531055,-0.433699 1.009588,-0.575318 0.478532,-0.141625 1.391142,-0.572234 2.028021,-0.956917 0.636879,-0.384682 1.467049,-1.079853 1.844821,-1.544819 0.377772,-0.464958 0.878557,-1.16341 1.112855,-1.552099 0.234297,-0.388689 0.426335,-0.965671 0.42675,-1.282173 5.12e-4,-0.389925 -0.215296,-0.780537 -0.669344,-1.211505 C 51.863718,37.923736 50.765123,36.865182 49.79095,35.921216 48.816778,34.97725 47.891674,33.959555 47.735163,33.659675 47.524948,33.256883 47.4506,32.270722 47.4506,29.885168 c 0,-2.877497 -0.03959,-3.257998 -0.363501,-3.493102 -0.199925,-0.145113 -0.517945,-0.488502 -0.706711,-0.763092 -0.188766,-0.274582 -0.34321,-0.805736 -0.34321,-1.180345 0,-0.374608 0.14861,-0.932687 0.330244,-1.240168 0.181634,-0.307482 0.581821,-0.707672 0.889303,-0.889302 0.307483,-0.181638 0.844857,-0.330247 1.194164,-0.330247 0.349308,0 0.897666,0.135773 1.218573,0.30172 0.320907,0.165948 0.725278,0.504185 0.898601,0.751645 0.178026,0.254168 0.315134,0.866559 0.315134,1.407543 0,0.776118 -0.114822,1.088416 -0.605753,1.647555 -0.605752,0.689912 -0.605752,0.689912 -0.605752,3.653264 v 2.963352 l 2.700387,2.663677 c 2.021117,1.993645 2.729992,2.824077 2.81808,3.301329 0.06473,0.350707 0.04209,0.895881 -0.05031,1.211505 -0.0924,0.315625 -0.407829,1.076709 -0.700955,1.691306 -0.293125,0.614605 -0.928301,1.56866 -1.411501,2.120137 -0.483202,0.551477 -1.391129,1.354932 -2.017617,1.785457 -0.626488,0.430532 -1.70631,0.986855 -2.399603,1.236284 -0.693295,0.249436 -1.464977,0.516631 -1.71485,0.593779 -0.351565,0.108535 -0.460779,0.05731 -0.482898,-0.226703 z m 2.536039,-21.993735 c 0.175664,-0.06739 0.31939,-0.321822 0.31939,-0.565367 0,-0.243545 -0.109036,-0.551843 -0.242301,-0.685105 -0.133266,-0.133269 -0.402657,-0.242301 -0.598648,-0.242301 -0.195991,0 -0.453604,0.181722 -0.572473,0.40383 -0.153556,0.286923 -0.153556,0.520753 0,0.807675 0.118869,0.222108 0.341791,0.40383 0.495384,0.40383 0.153591,0 0.422983,-0.05518 0.598648,-0.122562 z M 36.610424,46.240878 c -0.35384,-0.222253 -0.730757,-0.567969 -0.837594,-0.768258 -0.106836,-0.20029 -0.213556,-0.591314 -0.237154,-0.868956 -0.0236,-0.277635 -0.03285,-0.706069 -0.02056,-0.952079 0.01229,-0.24601 0.294939,-0.757749 0.628103,-1.137204 l 0.605752,-0.689913 V 24.34236 c 0,-17.1144663 -0.0087,-17.5053073 -0.412814,-18.5854503 -0.241441,-0.645315 -0.75498,-1.445508 -1.237043,-1.927575 -0.565795,-0.565794 -1.180258,-0.932534 -1.959717,-1.169642 -0.634199,-0.192924 -1.804044,-0.346327 -2.649867,-0.34748 -0.933078,-0.0013 -1.91488,0.136101 -2.557741,0.357878 -1.043361,0.359941 -1.043361,0.359941 -2.069654,-0.176692 -0.564461,-0.295148 -1.026294,-0.651528 -1.026294,-0.791955 0,-0.140426 0.566064,-0.500816 1.257919,-0.800865 0.691855,-0.300049 1.962533,-0.648242 2.823729,-0.773762 1.130307,-0.164744 1.979759,-0.168585 3.054123,-0.01381 0.818571,0.117928 2.023905,0.458855 2.678521,0.757618 0.654615,0.298762 1.584139,0.92476 2.065608,1.391105 0.481469,0.466346 1.162941,1.393076 1.514381,2.059406 l 0.638982,1.211502 0.0547,18.1659313 c 0.0547,18.16593 0.0547,18.16593 0.550176,18.683096 0.272511,0.284434 0.596573,0.807171 0.720139,1.161632 0.165084,0.473559 0.164881,0.825609 -7.64e-4,1.327519 -0.123984,0.375677 -0.444289,0.888661 -0.711788,1.139967 -0.29733,0.279322 -0.82478,0.491364 -1.357083,0.545547 -0.636514,0.06479 -1.043769,-0.02007 -1.514066,-0.315456 z m 2.035368,-1.687689 c 0.16039,-0.256153 0.16039,-0.450558 0,-0.70671 -0.121688,-0.194345 -0.455847,-0.381523 -0.742576,-0.415941 -0.36142,-0.04335 -0.589606,0.06502 -0.74393,0.353355 -0.162191,0.303063 -0.162191,0.528819 0,0.831874 0.154324,0.288357 0.38251,0.39674 0.74393,0.353355 0.286729,-0.03442 0.620888,-0.221589 0.742576,-0.415933 z M 21.805554,43.814304 c -0.611641,-0.08613 -1.474838,-0.274177 -1.918215,-0.417894 -0.443378,-0.14371 -1.231311,-0.474323 -1.750965,-0.734687 -0.519654,-0.260365 -1.346419,-0.861287 -1.837257,-1.33538 -0.490836,-0.474093 -1.17057,-1.275373 -1.510518,-1.780618 -0.339948,-0.505253 -0.648968,-1.080082 -0.686712,-1.277403 -0.05021,-0.262517 0.148047,-0.435065 0.739045,-0.643185 0.444219,-0.156431 0.910225,-0.285785 1.03557,-0.287456 0.125345,-0.0015 0.331724,0.247612 0.45862,0.553964 0.126896,0.306353 0.50236,0.847664 0.834363,1.202904 0.332004,0.355248 0.906606,0.876977 1.276894,1.159412 0.370288,0.282435 1.169476,0.684243 1.775974,0.892904 0.606497,0.208669 1.574626,0.4443 2.151397,0.523622 0.576771,0.07933 1.504167,0.08158 2.060883,0.0053 0.7506,-0.103232 1.626639,-0.512572 3.389545,-1.583809 1.307535,-0.794526 2.564015,-1.580886 2.792178,-1.747467 0.228163,-0.16658 0.520125,-0.501345 0.648804,-0.743913 0.151667,-0.285915 0.233962,-1.686109 0.233962,-3.980772 0,-3.257585 -0.03025,-3.555916 -0.379554,-3.742851 -0.208755,-0.111725 -0.520578,-0.55559 -0.69294,-0.986367 -0.249356,-0.623198 -0.269624,-0.955635 -0.0992,-1.627056 0.118833,-0.468164 0.436441,-1.018656 0.713424,-1.236529 0.274581,-0.215987 0.818148,-0.452526 1.207928,-0.525651 0.475612,-0.08922 0.934183,-0.02541 1.39432,0.194008 0.377096,0.179822 0.866394,0.623427 1.087328,0.985787 0.220934,0.362368 0.402038,0.913227 0.402453,1.224143 4.15e-4,0.310916 -0.135021,0.82786 -0.300968,1.148766 -0.165948,0.320913 -0.478395,0.707213 -0.694325,0.858462 -0.362116,0.253634 -0.397484,0.581133 -0.455467,4.21757 -0.0628,3.938394 -0.06347,3.943507 -0.63113,4.800512 -0.41043,0.619634 -1.279704,1.322544 -3.129721,2.530744 -1.408801,0.920057 -2.857921,1.824736 -3.220267,2.010395 -0.384607,0.197062 -1.309051,0.371251 -2.221093,0.418498 -0.859254,0.04449 -2.062714,0.01045 -2.674356,-0.07571 z M 33.394169,28.200676 c 0.174027,-0.277947 0.125395,-0.444627 -0.234837,-0.804866 -0.361082,-0.361078 -0.526259,-0.409012 -0.804867,-0.233555 -0.192802,0.121417 -0.38095,0.375333 -0.418106,0.56426 -0.03716,0.188933 -0.01496,0.48058 0.04933,0.648114 0.07352,0.19159 0.315782,0.280856 0.652943,0.2406 0.29483,-0.03518 0.634821,-0.22175 0.755535,-0.414553 z m 23.464423,8.80846 -0.521654,-0.933343 1.41453,-1.309639 c 0.777991,-0.720301 1.864756,-1.995445 2.415033,-2.833654 0.745024,-1.134861 1.086375,-1.909995 1.336794,-3.035584 0.237972,-1.069635 0.297936,-1.924259 0.2051,-2.923134 -0.07216,-0.776363 -0.344322,-2.01328 -0.604816,-2.7487 -0.260494,-0.735419 -0.59341,-1.62366 -0.739814,-1.973871 -0.249011,-0.595648 -0.227974,-0.682663 0.325996,-1.348361 0.325701,-0.391398 0.694937,-0.718187 0.820522,-0.726201 0.125586,-0.008 0.550146,0.644178 0.943467,1.449319 0.39332,0.805149 0.863841,1.963652 1.045602,2.574449 0.18176,0.610797 0.381521,1.928311 0.443911,2.927804 0.08446,1.35307 0.02462,2.178289 -0.234265,3.230677 -0.191236,0.777385 -0.665956,2.004031 -1.054933,2.725889 -0.388977,0.721851 -1.038557,1.720268 -1.44351,2.218691 -0.404954,0.49843 -1.178455,1.340256 -1.718892,1.870723 -0.540437,0.530475 -1.236594,1.145347 -1.547015,1.366387 -0.564402,0.401891 -0.564402,0.401891 -1.086056,-0.531452 z M 9.7261898,35.603622 c -0.51853,-0.119395 -1.326422,-0.415353 -1.795317,-0.657692 -0.468894,-0.242339 -1.176555,-0.725109 -1.572578,-1.072825 -0.396024,-0.347707 -0.943547,-1.013581 -1.216717,-1.479714 -0.273171,-0.466134 -0.632167,-1.294147 -0.797767,-1.840045 -0.1656,-0.545891 -0.302076,-1.557342 -0.303278,-2.24766 -0.0014,-0.780598 0.13141,-1.537264 0.35117,-2.001352 0.274729,-0.580164 0.85967,-1.075244 2.628776,-2.224918 1.498776,-0.973996 2.343025,-1.656522 2.473489,-1.999666 0.108938,-0.286533 0.198069,-1.298099 0.198069,-2.247942 0,-1.624523 -0.03535,-1.767232 -0.595793,-2.405548 -0.327686,-0.373212 -0.654161,-0.989694 -0.725499,-1.369966 -0.08757,-0.466774 -0.01636,-0.93026 0.219185,-1.426629 0.19189,-0.404387 0.604716,-0.867529 0.91739,-1.029219 0.312673,-0.161689 0.8997262,-0.293981 1.3045612,-0.293981 0.404835,0 0.997301,0.154317 1.316592,0.342922 0.322766,0.190666 0.721969,0.696423 0.899081,1.139074 0.193343,0.483213 0.267427,1.028921 0.188479,1.388366 -0.07154,0.325728 -0.383434,0.880792 -0.693095,1.233475 -0.53464,0.60892 -0.56676,0.759062 -0.637215,2.978516 -0.06791,2.13933 -0.120621,2.407418 -0.6224,3.165664 -0.354775,0.536099 -1.103415,1.171935 -2.1217272,1.802024 -0.865437,0.535497 -1.762681,1.109929 -1.993877,1.27651 -0.231196,0.166581 -0.525638,0.501346 -0.654317,0.743914 -0.128679,0.242575 -0.233962,0.761626 -0.233962,1.153451 0,0.391826 0.181141,1.196555 0.402536,1.78828 0.229966,0.614643 0.727704,1.387419 1.161026,1.80259 0.417169,0.399685 1.076509,0.891278 1.4652,1.09243 0.502674,0.260128 1.1730832,0.368572 2.3220512,0.3756 1.41488,0.0086 1.778213,-0.0696 2.927803,-0.630287 0.721855,-0.352088 2.852694,-1.669603 4.735197,-2.927805 2.806968,-1.876073 3.49716,-2.43293 3.836432,-3.095301 0.37317,-0.728543 0.413698,-1.175262 0.413698,-4.559996 0,-3.75233 0,-3.75233 -0.656232,-4.499685 -0.489077,-0.556995 -0.65604,-0.938449 -0.655477,-1.497527 4.15e-4,-0.41259 0.18413,-1.050937 0.408256,-1.418548 0.224126,-0.36761 0.728318,-0.802432 1.120428,-0.966265 0.424963,-0.177563 0.973693,-0.248208 1.358521,-0.174899 0.355077,0.06761 0.836696,0.279054 1.070264,0.469827 0.233568,0.190765 0.528872,0.541556 0.656231,0.77953 0.127361,0.237973 0.231564,0.798944 0.231564,1.246602 0,0.61059 -0.146594,0.98088 -0.586826,1.482271 -0.586825,0.668361 -0.586825,0.668361 -0.656232,4.706606 -0.06941,4.038252 -0.06941,4.038252 -0.713569,5.345715 -0.460572,0.934832 -0.920952,1.516949 -1.615339,2.042487 -0.534147,0.404264 -2.494158,1.704127 -4.35558,2.888578 -1.861421,1.184458 -3.72411,2.300424 -4.139307,2.479925 -0.415198,0.179501 -1.557302,0.378974 -2.538009,0.443277 -1.013414,0.06647 -2.190063,0.0232 -2.7258862,-0.100164 z M 25.119306,16.879186 c 0.221686,-0.162101 0.333806,-0.453854 0.290989,-0.757192 -0.04728,-0.334948 -0.219178,-0.514678 -0.535084,-0.559459 -0.255986,-0.03633 -0.596721,0.04296 -0.75719,0.176158 -0.160469,0.133178 -0.291762,0.408226 -0.291762,0.611224 0,0.202991 0.159009,0.461692 0.353355,0.574883 0.194346,0.113198 0.404136,0.208577 0.466201,0.21195 0.06207,0.0031 0.275136,-0.112526 0.473491,-0.257564 z M 11.298153,16.245381 c 0.133178,-0.160469 0.212451,-0.501209 0.176162,-0.757193 -0.0473,-0.33365 -0.219347,-0.483144 -0.607672,-0.52801 -0.369758,-0.04274 -0.607044,0.05953 -0.747587,0.322142 -0.1514192,0.282924 -0.1252712,0.499827 0.09883,0.819771 0.167597,0.239279 0.424738,0.43505 0.571425,0.43505 0.146687,0 0.375667,-0.131292 0.508844,-0.29176 z m 42.405096,15.682853 c -0.170318,-0.08048 -0.496634,-0.282618 -0.725147,-0.449199 -0.228512,-0.166581 -0.52076,-0.501346 -0.649439,-0.743921 -0.128679,-0.242568 -0.233962,-0.807301 -0.233962,-1.254959 0,-0.616421 0.146981,-0.981315 0.605753,-1.50383 0.605752,-0.689913 0.605752,-0.689913 0.610187,-3.389145 0.0036,-2.173787 0.07602,-2.85645 0.372145,-3.5069 0.202241,-0.444216 1.154305,-1.5772 2.115698,-2.517747 1.199291,-1.173286 1.747988,-1.856681 1.747988,-2.177099 0,-0.256862 -0.140899,-0.804836 -0.313109,-1.217724 -0.172211,-0.412888 -0.5975,-1.044542 -0.945088,-1.403682 -0.631978,-0.652984 -0.631978,-0.652984 -0.337791,-1.600293 0.161804,-0.521019 0.41006,-0.985932 0.551679,-1.03314 0.14162,-0.04724 0.739746,0.400334 1.329169,0.99454 0.73953,0.745524 1.205656,1.442557 1.503956,2.248965 0.247927,0.670239 0.432276,1.642732 0.432276,2.280384 0,1.111783 0,1.111783 -1.941841,3.071666 -1.068013,1.077938 -2.022073,2.170245 -2.120133,2.427344 -0.09806,0.257106 -0.178292,1.492993 -0.178292,2.746418 0,2.251773 0.0072,2.286451 0.59991,2.906711 0.32995,0.345257 0.65797,0.85908 0.728933,1.141821 0.07097,0.282733 0.07246,0.815573 0.0034,1.184084 -0.06913,0.368512 -0.374509,0.908396 -0.678614,1.199745 -0.33453,0.320501 -0.871862,0.571708 -1.360428,0.636011 -0.44413,0.05846 -0.946861,0.04045 -1.117178,-0.04006 z m 1.418038,-1.759044 c 0.137334,-0.165474 0.194741,-0.517188 0.127891,-0.783544 -0.06672,-0.265806 -0.291112,-0.527689 -0.498662,-0.581972 -0.20755,-0.05426 -0.526565,-0.01519 -0.70892,0.08687 -0.182356,0.102049 -0.331555,0.403678 -0.331555,0.670277 0,0.2666 0.15901,0.577341 0.353356,0.690531 0.194345,0.113199 0.455808,0.208578 0.581028,0.211951 0.12522,0.0031 0.339808,-0.128973 0.476862,-0.294113 z M 1.8851708,24.775846 C 1.6507738,24.52016 1.2770378,23.947513 1.0546468,23.503289 0.83225482,23.059074 0.50398182,22.202099 0.32514882,21.598911 0.12968882,20.939631 -1.1883717e-6,19.764315 -1.1883717e-6,18.652234 c 0,-1.301557 0.1154920083717,-2.185638 0.3895980083717,-2.982339 0.21428,-0.622817 0.62804698,-1.539271 0.91948298,-2.036572 0.291436,-0.497293 1.162722,-1.501167 1.936191,-2.230817 1.061353,-1.001226 1.920228,-1.5745213 3.501451,-2.3372163 1.152329,-0.555819 2.504025,-1.066627 3.003769,-1.13512 0.7187962,-0.09852 1.1362792,-0.0203 1.9982962,0.374326 0.599319,0.274376 2.085404,1.069352 3.302412,1.7666223 1.217008,0.697262 2.495836,1.478615 2.84184,1.736332 0.346002,0.257724 0.832478,0.90126 1.081055,1.430087 0.361896,0.769899 0.472811,1.445937 0.556603,3.392533 0.09666,2.245615 0.143456,2.472676 0.613496,2.976875 0.355099,0.380905 0.53778,0.846878 0.604588,1.542171 0.08841,0.920141 0.04107,1.055982 -0.618971,1.776215 -0.652399,0.711892 -0.805423,0.779881 -1.755322,0.779881 -0.943791,0 -1.104933,-0.07021 -1.731814,-0.754224 -0.562478,-0.613773 -0.691196,-0.915623 -0.691196,-1.62089 0,-0.482015 0.151422,-1.088248 0.341169,-1.365913 0.187643,-0.274583 0.460231,-0.571907 0.605752,-0.660715 0.192116,-0.117243 0.264584,-0.764457 0.264584,-2.363025 0,-1.239787 -0.102298,-2.426078 -0.234167,-2.715496 -0.128791,-0.282671 -0.651253,-0.773325 -1.161025,-1.090346 -0.509772,-0.317014 -1.947658,-1.142455 -3.195301,-1.834298 -2.210374,-1.225707 -2.287905,-1.251601 -3.0287622,-1.011551 -0.418175,0.135497 -1.267291,0.499948 -1.886922,0.809895 -0.619632,0.309939 -1.553318,0.889249 -2.074858,1.287355 -0.52154,0.398098 -1.217952,1.017931 -1.547582,1.377414 -0.329629,0.359475 -0.842052,1.153337 -1.138719,1.764134 -0.391113,0.805255 -0.564573,1.53157 -0.630989,2.642087 -0.06423,1.074061 0.01072,1.888299 0.250939,2.725882 0.188395,0.656891 0.517222,1.494848 0.730726,1.862123 0.213505,0.367274 0.38819,0.731718 0.38819,0.80988 0,0.07815 -0.297712,0.486601 -0.661583,0.907655 -0.661583,0.765557 -0.661583,0.765557 -1.087759,0.300667 z M 18.870463,21.919374 c 0.26705,-0.195276 0.335171,-0.415186 0.242719,-0.783544 -0.07069,-0.281649 -0.306082,-0.558521 -0.523096,-0.615269 -0.227422,-0.05945 -0.527737,0.04396 -0.70892,0.244171 -0.172891,0.19104 -0.314348,0.49469 -0.314348,0.674772 0,0.180081 0.15901,0.420039 0.353355,0.533237 0.194346,0.113191 0.404136,0.20857 0.466202,0.211951 0.06207,0.0031 0.279904,-0.116023 0.484088,-0.265318 z m 11.410788,0.268439 c -0.281138,-0.07721 -0.711243,-0.265333 -0.955788,-0.418055 -0.244546,-0.152722 -0.580658,-0.617642 -0.746914,-1.033164 -0.177791,-0.444338 -0.251329,-1.010269 -0.178556,-1.374132 0.06805,-0.340252 0.384311,-0.897597 0.702801,-1.238543 0.579071,-0.619901 0.579071,-0.619901 0.579071,-4.155854 V 10.432104 L 28.914837,9.6986687 c -0.421865,-0.403387 -1.489503,-1.183551 -2.37253,-1.7337 -0.883026,-0.550149 -2.286974,-1.346872 -3.119883,-1.770491 -0.83291,-0.423626 -2.003813,-0.859424 -2.602007,-0.968433 -0.598195,-0.109008 -1.55588,-0.198198 -2.128191,-0.198198 -0.572309,0 -1.567616,0.137276 -2.211794,0.305063 -0.644177,0.167786 -1.576876,0.542792 -2.072667,0.833347 -0.901436,0.528277 -0.901436,0.528277 -1.748516,0.162574 -0.465893,-0.201136 -0.931251,-0.437698 -1.034129,-0.525697 -0.109804,-0.09392 -0.03195,-0.331376 0.188525,-0.574998 0.206566,-0.228251 0.837173,-0.679104 1.401348,-1.001894 0.564175,-0.322782 1.751419,-0.786038 2.63832,-1.029446 1.349259,-0.370307 1.942224,-0.424297 3.63172,-0.330666 1.110546,0.06159 2.449617,0.245842 2.975713,0.409561 0.526096,0.163719 2.012526,0.902113 3.303178,1.640883 1.290652,0.73876 2.966763,1.751746 3.724692,2.251069 1.096555,0.722415 1.483893,1.120262 1.896196,1.947649 0.498959,1.0012793 0.518144,1.1753313 0.518144,4.7004093 0,3.611162 0.0066,3.666834 0.488559,4.119612 0.268707,0.252436 0.597123,0.721072 0.729814,1.041421 0.133296,0.321806 0.184615,0.884364 0.114679,1.257149 -0.06961,0.37109 -0.382157,0.919568 -0.694534,1.218846 -0.312377,0.299278 -0.833707,0.618688 -1.158511,0.709801 -0.324804,0.09111 -0.820574,0.102483 -1.101712,0.02526 z m 1.295661,-2.063832 c 0.174027,-0.277955 0.125395,-0.444635 -0.234837,-0.804866 -0.361082,-0.361078 -0.526259,-0.409012 -0.804867,-0.233563 -0.192802,0.121418 -0.38095,0.375341 -0.418106,0.564267 -0.03716,0.188926 -0.01496,0.48058 0.04933,0.648115 0.07352,0.191582 0.315782,0.280856 0.652943,0.240599 0.29483,-0.03518 0.634821,-0.221749 0.755535,-0.414552 z"
     id="path2" /><path
     style="font-size:48.933px;font-family:'Sebino Soft Regular';-inkscape-font-specification:'Sebino Soft Regular, ';stroke-width:0.113801;stroke-linecap:round"
     d="M 89.81561,40.152484 87.65736,34.140211 H 76.634849 l -2.158254,6.012273 q -0.423943,1.233291 -1.580151,1.233291 -0.732264,0 -1.233288,-0.42394 -0.501023,-0.423949 -0.501023,-1.040586 0,-0.269781 0.115621,-0.616646 L 80.02639,15.640889 q 0.616645,-1.695769 2.119717,-1.695769 1.503065,0 2.11971,1.695769 l 8.748633,23.663714 q 0.11562,0.346865 0.11562,0.616646 0,0.616637 -0.50102,1.040586 -0.50102,0.42394 -1.23328,0.42394 -1.15621,0 -1.58016,-1.233291 z M 82.146107,18.801185 77.675437,31.21115 h 8.902792 z M 97.331,18.531404 q 0.9635,-2.235331 3.04467,-3.50716 2.11972,-1.310368 4.85607,-1.310368 3.85403,0 6.20498,2.27387 2.3895,2.273877 2.3895,5.7425 0,3.430085 -3.00614,6.667465 l -8.78718,9.82776 h 11.02252 q 0.5781,0 0.92496,0.423948 0.3854,0.423941 0.3854,1.040586 0,0.616646 -0.3854,1.040586 -0.34686,0.423941 -0.92496,0.423941 H 98.37158 q -0.57811,0 -0.96351,-0.423941 -0.34685,-0.42394 -0.34685,-1.040586 0,-0.578107 0.65518,-1.348912 l 10.67565,-11.870395 q 2.04263,-2.235332 2.04263,-4.701914 0,-2.350953 -1.42599,-3.738404 -1.42599,-1.387443 -3.69986,-1.387443 -3.46862,0 -4.89461,3.160296 -0.46249,0.963511 -1.54161,0.963511 -0.69373,0 -1.23329,-0.423949 -0.50103,-0.42394 -0.50103,-1.079124 0,-0.231243 0.19271,-0.732267 z m 34.26224,11.407917 5.62688,9.134039 q 0.30832,0.462486 0.30832,0.847889 0,0.616637 -0.50102,1.040586 -0.50103,0.42394 -1.15621,0.42394 -1.00204,0 -1.61869,-1.040586 l -6.08936,-10.136087 h -4.89461 v 9.673601 q 0,0.693729 -0.50103,1.117669 -0.46247,0.385403 -1.1562,0.385403 -0.69373,0 -1.19475,-0.385403 -0.46248,-0.42394 -0.46248,-1.117669 V 15.679427 q 0,-0.693721 0.46248,-1.079124 0.50102,-0.423948 1.19475,-0.423948 h 7.09141 q 4.16234,0 6.706,2.119718 2.54366,2.081172 2.54366,5.896659 0,3.121758 -1.69578,5.125855 -1.69577,1.96555 -4.66337,2.620734 z m 1.27183,-3.969647 q 1.69577,-1.310367 1.69577,-3.776942 0,-2.466574 -1.69577,-3.776949 -1.65723,-1.310367 -4.47067,-1.310367 h -5.12585 v 10.174625 h 5.12585 q 2.81344,0 4.47067,-1.310367 z"
     id="text1"
     aria-label="A2R" /></svg>
